<?xml version="1.0" encoding="UTF-8"?>
<svg id="_レイヤー_1" data-name="レイヤー_1" xmlns="http://www.w3.org/2000/svg" version="1.1" viewBox="0 0 280 63">
  <!-- Generator: Adobe Illustrator 29.5.0, SVG Export Plug-In . SVG Version: 2.1.0 Build 137)  -->
  <defs>
    <style>
      .st0 {
        fill: #00202f;
      }
    </style>
  </defs>
  <path class="st0" d="M60,26.5c1.1,0,1.5.5,1.4,1.6l-1.8,10c-.2,1.1-.8,1.7-1.9,1.7h-16.6c-1.1,0-1.7.5-1.9,1.6l-3.6,20c-.1,1.1-.8,1.6-1.9,1.6H10.5c-1.1,0-1.6-.5-1.4-1.6l1.8-10c.2-1.1.9-1.7,2-1.7h8.2c1.1,0,1.8-.5,2-1.6l1.2-6.7c.2-1.1-.3-1.6-1.4-1.6H1.3c-1.1,0-1.6-.6-1.4-1.7l1.8-10c.2-1.1.8-1.6,2-1.6h56.4ZM60.3,13.6c1.1,0,1.5.5,1.3,1.6l-.5,3.1c-.2,1.1-.9,1.6-2,1.6H6.1c-1.1,0-1.6-.5-1.4-1.6l1.8-10c.2-1.1.8-1.7,1.9-1.7h38.9c1.1,0,1.6.6,1.4,1.7l-.7,4.3c-.1.7.1,1,.8,1h11.5ZM51.7,11.7c-.7,0-.9-.3-.8-1l1.7-9.6c0-.7.5-1,1.2-1h3.8c.7,0,.9.3.8,1l-1.7,9.6c0,.7-.5,1-1.2,1h-3.8ZM66,0c.7,0,.9.3.8,1l-1.7,9.6c0,.7-.5,1-1.2,1h-3.8c-.7,0-1-.3-.9-1l1.8-9.6c0-.7.5-1,1.2-1h3.8Z"/>
  <path class="st0" d="M101.2,6.7c1.1,0,1.6.5,1.4,1.6l-9.3,53.1c-.2,1.1-.9,1.6-2,1.6h-18.7c-1.1,0-1.6-.5-1.4-1.6l1.8-10c.2-1.1.8-1.7,1.9-1.7h3.6c1.1,0,1.8-.5,2-1.6l7-39.8c.2-1.1.9-1.6,2-1.6h11.7ZM132.5,49.7c1.1,0,1.5.6,1.4,1.7l-1.8,10c-.2,1.1-.8,1.6-1.9,1.6h-19.3c-1.1,0-1.6-.6-1.5-1.7l5.5-53c0-1.1.7-1.7,1.8-1.7h3.7c1.1,0,1.6.6,1.4,1.7l-.8,4.3c0,.7.2,1,.8,1h5.5c1.1,0,1.6.5,1.5,1.6l-3.4,32.9c-.1,1.1.3,1.6,1.5,1.6h5.7ZM124.5,11.7c-.6,0-.9-.3-.8-1l1.7-9.6c.1-.7.5-1,1.2-1h3.9c.6,0,.9.3.8,1l-1.7,9.6c-.1.7-.5,1-1.2,1h-3.9ZM138.9,0c.6,0,.9.3.8,1l-1.8,9.6c0,.7-.5,1-1.2,1h-3.8c-.6,0-.9-.3-.8-1l1.7-9.6c.1-.7.5-1,1.2-1h3.9Z"/>
  <path class="st0" d="M196.1,6.6h13c1.1,0,1.6.6,1.4,1.7l-1.8,10c-.2,1.1-.9,1.6-2,1.6h-3.9c-1.1,0-2.1.4-2.9,1.1l-12.5,11.1c-.8.7-1.8,1.1-2.8,1.1h-36.6c-1.1,0-1.5-.5-1.3-1.6l1.8-10c.2-1.1.8-1.7,1.9-1.7h27.4c1.1,0,2.1-.4,2.9-1.1l12.5-11.1c.8-.7,1.8-1.1,2.9-1.1ZM171.4,39.8h12.5c1.1,0,1.6.5,1.4,1.6l-3.5,20c-.2,1.1-.9,1.6-2,1.6h-12.5c-1.1,0-1.6-.5-1.4-1.6l3.5-20c.2-1.1.9-1.6,2-1.6Z"/>
  <path class="st0" d="M233.8,26.5h44.8c1.1,0,1.5.5,1.3,1.6l-1.7,10.1c-.2,1.1-.8,1.6-1.9,1.6h-29.2c-1.1,0-1.8.5-2,1.6l-3.5,20c-.2,1.1-.9,1.6-2,1.6h-12.3c-1.1,0-1.6-.5-1.4-1.6l5.8-33.2c.2-1.1.9-1.6,2-1.6ZM251.5,5l-2.3,13.3c-.2,1.1-.9,1.6-2,1.6h-12.3c-1.1,0-1.6-.5-1.4-1.6l2.3-13.3c.2-1.1.9-1.6,2-1.6h12.3c1.1,0,1.6.5,1.4,1.6Z"/>
</svg>